# xmcd
#
# Track frame offsets:
#  150
#  14792
#  33326
#  50974
#  60913
#  74769
#  92926
#  106225
#  126538
#  146452
#  162233
#  171955
#  185602
#  203754
#
# Disc length: 2958 seconds
#
# Revision: 0
# Processed by: cddbd v1.5.1PL2 Copyright (c) Steve Scherf et al.
# Submitted via: Collectorz.com_Music_Collector 6.11
#
DISCID=d60b8c0e
DTITLE=Internationals - Wonders Of The World
DYEAR=2006
DGENRE=Rock
TTITLE0=Need a Need
TTITLE1=Fuzzy
TTITLE2=Champs Elysee
TTITLE3=Theme From ' Red Beauty Saloon '
TTITLE4=Melodix
TTITLE5=The Prophecy
TTITLE6=33
TTITLE7=Easy Chopping
TTITLE8=Eggs or Cups
TTITLE9=Cape Ska
TTITLE10=High Grass
TTITLE11=You're So Fine
TTITLE12=Out of the Cold
TTITLE13=Wonders of the World
EXTD=
EXTT0=
EXTT1=
EXTT2=
EXTT3=
EXTT4=
EXTT5=
EXTT6=
EXTT7=
EXTT8=
EXTT9=
EXTT10=
EXTT11=
EXTT12=
EXTT13=
PLAYORDER=
